{"title":"Venial.2014.WEBRip.RR.mp4","uid":14287482,"size":1753410177,"categoryP":"video","categoryS":"movies","magnet":"?xt=urn:btih:a6c6611a171869553a4a0680015ae7dec2aed982&amp;dn=Venial.2014.WEBRip.RR.mp4&amp;tr=udp%3A%2F%2Ftracker.leechers-paradise.org%3A6969&amp;tr=udp%3A%2F%2Fzer0day.ch%3A1337&amp;tr=udp%3A%2F%2Fopen.demonii.com%3A1337&amp;tr=udp%3A%2F%2Ftracker.coppersurfer.tk%3A6969&amp;tr=udp%3A%2F%2Fexodus.desync.com%3A6969","seeders":0,"leechers":0,"uploader":"RadioResearch","files":1,"time":1460415386,"description":"Claire Gundersmith played by Tiffany Browne Tavarez is a devout Christian mother who lives with her three small children in a remote early American House the immediate aftermath of World War II. She is given the news of her husband played by John Basedow passing from the war and loses complete faith. The three children Peter, Hellen and Three priests played by Frank Riano, Robert Arensan and James Sfferrazza make a routine visit to Claire to check up on her. Strange things have been happening that Claire cannot explain- coincides with a number of odd events, and Claire begins to fear that they are not alone in the house. The priest proceeds to cleanse the house of any evil. While performing the ritual one of the priest spot a woman floating across the hallway. - It's his dead sister. As they time passes the house plays to an evil amusement tune. Visions of awakenings, past and present to the dark evil secrets of everyone's past arise. The door closes in hell leaving behind the family of four inside of it. Now evil will paint its symphony masterpiece. \r\n\r\n\r\nEnjoy and seed!\r\nRR\r\n\r\nScreencaps:  http://i.imgur.com/9mXCfya.jpg\r\n\r\nVideo\r\nID                                       : 1\r\nFormat                                   : AVC\r\nFormat/Info                              : Advanced Video Codec\r\nFormat profile                           :   \r\nFormat settings, CABAC                   : Yes\r\nFormat settings, ReFrames                : 4 frames\r\nCodec ID                                 : avc1\r\nCodec ID/Info                            : Advanced Video Coding\r\nDuration                                 : 1h 28mn\r\nBit rate                                 : 2 402 Kbps\r\nWidth                                    : 1 920 pixels\r\nHeight                                   : 1 080 pixels\r\nDisplay aspect ratio                     : 16:9\r\nFrame rate mode                          : Constant\r\nFrame rate                               : 29.970 (30000/1001) fps\r\nColor space                              : YUV\r\nChroma subsampling                       : 4:2:0\r\nBit depth                                : 8 bits\r\nScan type                                : Progressive\r\nBits/(Pixel*Frame)                       : 0.039\r\nStream size                              : 1.48 GiB (91%)\r\nWriting library                          : x264 core 142 r11 24e4fed\r\nEncoding settings                        : cabac=1 / ref=3 / deblock=1:0:0 / analyse=0x3:0x113 / me=hex / subme=7 / psy=1 / psy_rd=1.00:0.00 / mixed_ref=1 / me_range=16 / chroma_me=1 / trellis=1 / 8x8dct=1 / cqm=0 / deadzone=21,11 / fast_pskip=1 / chroma_qp_offset=-2 / threads=48 / lookahead_threads=8 / sliced_threads=0 / nr=0 / decimate=1 / interlaced=0 / bluray_compat=0 / stitchable=1 / constrained_intra=0 / bframes=3 / b_pyramid=2 / b_adapt=1 / b_bias=0 / direct=1 / weightb=1 / open_gop=0 / weightp=2 / keyint=infinite / keyint_min=29 / scenecut=40 / intra_refresh=0 / rc_lookahead=40 / rc=crf / mbtree=1 / crf=20.0 / qcomp=0.60 / qpmin=5 / qpmax=69 / qpstep=4 / vbv_maxrate=4950 / vbv_bufsize=13500 / crf_max=0.0 / nal_hrd=none / filler=0 / ip_ratio=1.40 / aq=1:1.00\r\nEncoded date                             : UTC 2014-12-11 16:37:52\r\nTagged date                              : UTC 2014-12-11 16:37:52\r\nColor range                              : Limited\r\nColor primaries                          : BT.709\r\nTransfer characteristics                 : BT.709\r\nMatrix coefficients                      : BT.709\r\n\r\nAudio\r\nID                                       : 2\r\nFormat                                   : AAC\r\nFormat/Info                              : Advanced Audio Codec\r\nFormat profile                           : LC\r\nCodec ID                                 : 40\r\nDuration                                 : 1h 28mn\r\nBit rate mode                            : Variable\r\nBit rate                                 : 235 Kbps\r\nChannel(s)                               : 2 channels\r\nChannel positions                        : Front: L R\r\nSampling rate                            : 48.0 KHz\r\nFrame rate                               : 46.875 fps (1024 spf)\r\nCompression mode                         : Lossy\r\nStream size                              : 149 MiB (9%)\r\nEncoded date                             : UTC 2014-12-11 16:37:52\r\nTagged date                              : UTC 2014-12-11 16:37:52","torrent":{"xt":"urn:btih:a6c6611a171869553a4a0680015ae7dec2aed982","amp;dn":"Venial.2014.WEBRip.RR.mp4","amp;tr":["udp%3A%2F%2Ftracker.leechers-paradise.org%3A6969","udp%3A%2F%2Fzer0day.ch%3A1337","udp%3A%2F%2Fopen.demonii.com%3A1337","udp%3A%2F%2Ftracker.coppersurfer.tk%3A6969","udp%3A%2F%2Fexodus.desync.com%3A6969"],"infoHash":"a6c6611a171869553a4a0680015ae7dec2aed982","infoHashBuffer":{"type":"Buffer","data":[166,198,97,26,23,24,105,85,58,74,6,128,1,90,231,222,194,174,217,130]},"announce":[],"urlList":[]}}